<mxfile host="app.diagrams.net" modified="2023-06-08T12:38:44.070Z" agent="Mozilla/5.0 (Windows NT 10.0; Win64; x64) AppleWebKit/537.36 (KHTML, like Gecko) Chrome/114.0.0.0 Safari/537.36 Edg/114.0.1823.37" etag="behuRYJBrBp4YIMTGZqm" version="21.3.7" type="device" pages="2">
  <diagram id="R2lEEEUBdFMjLlhIrx00" name="Người dùng">
    <mxGraphModel dx="3702" dy="1234" grid="1" gridSize="10" guides="1" tooltips="1" connect="1" arrows="1" fold="1" page="1" pageScale="1" pageWidth="850" pageHeight="1100" math="0" shadow="0" extFonts="Permanent Marker^https://fonts.googleapis.com/css?family=Permanent+Marker">
      <root>
        <mxCell id="0" />
        <mxCell id="1" parent="0" />
        <mxCell id="rdfHkaKgOAgfBVkQX1rz-15" style="edgeStyle=orthogonalEdgeStyle;rounded=0;orthogonalLoop=1;jettySize=auto;html=1;exitX=1;exitY=0.3333333333333333;exitDx=0;exitDy=0;exitPerimeter=0;entryX=0;entryY=0.5;entryDx=0;entryDy=0;" edge="1" parent="1" source="rdfHkaKgOAgfBVkQX1rz-6" target="rdfHkaKgOAgfBVkQX1rz-7">
          <mxGeometry relative="1" as="geometry" />
        </mxCell>
        <mxCell id="rdfHkaKgOAgfBVkQX1rz-16" style="edgeStyle=orthogonalEdgeStyle;rounded=0;orthogonalLoop=1;jettySize=auto;html=1;exitX=1;exitY=0.3333333333333333;exitDx=0;exitDy=0;exitPerimeter=0;entryX=0;entryY=0.5;entryDx=0;entryDy=0;" edge="1" parent="1" source="rdfHkaKgOAgfBVkQX1rz-6" target="rdfHkaKgOAgfBVkQX1rz-8">
          <mxGeometry relative="1" as="geometry" />
        </mxCell>
        <mxCell id="rdfHkaKgOAgfBVkQX1rz-17" style="edgeStyle=orthogonalEdgeStyle;rounded=0;orthogonalLoop=1;jettySize=auto;html=1;exitX=1;exitY=0.3333333333333333;exitDx=0;exitDy=0;exitPerimeter=0;entryX=0;entryY=0.5;entryDx=0;entryDy=0;" edge="1" parent="1" source="rdfHkaKgOAgfBVkQX1rz-6" target="rdfHkaKgOAgfBVkQX1rz-9">
          <mxGeometry relative="1" as="geometry" />
        </mxCell>
        <mxCell id="rdfHkaKgOAgfBVkQX1rz-18" style="edgeStyle=orthogonalEdgeStyle;rounded=0;orthogonalLoop=1;jettySize=auto;html=1;exitX=1;exitY=0.3333333333333333;exitDx=0;exitDy=0;exitPerimeter=0;entryX=0;entryY=0.5;entryDx=0;entryDy=0;" edge="1" parent="1" source="rdfHkaKgOAgfBVkQX1rz-6" target="rdfHkaKgOAgfBVkQX1rz-10">
          <mxGeometry relative="1" as="geometry" />
        </mxCell>
        <mxCell id="rdfHkaKgOAgfBVkQX1rz-19" style="edgeStyle=orthogonalEdgeStyle;rounded=0;orthogonalLoop=1;jettySize=auto;html=1;exitX=1;exitY=0.3333333333333333;exitDx=0;exitDy=0;exitPerimeter=0;entryX=0;entryY=0.5;entryDx=0;entryDy=0;" edge="1" parent="1" source="rdfHkaKgOAgfBVkQX1rz-6" target="rdfHkaKgOAgfBVkQX1rz-11">
          <mxGeometry relative="1" as="geometry" />
        </mxCell>
        <mxCell id="rdfHkaKgOAgfBVkQX1rz-20" style="edgeStyle=orthogonalEdgeStyle;rounded=0;orthogonalLoop=1;jettySize=auto;html=1;exitX=1;exitY=0.3333333333333333;exitDx=0;exitDy=0;exitPerimeter=0;entryX=0;entryY=0.5;entryDx=0;entryDy=0;" edge="1" parent="1" source="rdfHkaKgOAgfBVkQX1rz-6" target="rdfHkaKgOAgfBVkQX1rz-13">
          <mxGeometry relative="1" as="geometry" />
        </mxCell>
        <mxCell id="rdfHkaKgOAgfBVkQX1rz-6" value="Người dùng" style="shape=umlActor;html=1;verticalLabelPosition=bottom;verticalAlign=top;align=center;" vertex="1" parent="1">
          <mxGeometry x="-1640" y="240" width="30" height="60" as="geometry" />
        </mxCell>
        <mxCell id="rdfHkaKgOAgfBVkQX1rz-7" value="Tìm kiếm và lọc source code trang web" style="ellipse;whiteSpace=wrap;html=1;" vertex="1" parent="1">
          <mxGeometry x="-1460" y="40" width="140" height="70" as="geometry" />
        </mxCell>
        <mxCell id="rdfHkaKgOAgfBVkQX1rz-8" value="Xem danh sách trang web" style="ellipse;whiteSpace=wrap;html=1;" vertex="1" parent="1">
          <mxGeometry x="-1460" y="120" width="140" height="70" as="geometry" />
        </mxCell>
        <mxCell id="rdfHkaKgOAgfBVkQX1rz-9" value="Xem chi tiết source code" style="ellipse;whiteSpace=wrap;html=1;" vertex="1" parent="1">
          <mxGeometry x="-1460" y="200" width="140" height="70" as="geometry" />
        </mxCell>
        <mxCell id="rdfHkaKgOAgfBVkQX1rz-10" value="Thêm source code vào giỏ hàng" style="ellipse;whiteSpace=wrap;html=1;" vertex="1" parent="1">
          <mxGeometry x="-1460" y="280" width="140" height="70" as="geometry" />
        </mxCell>
        <mxCell id="rdfHkaKgOAgfBVkQX1rz-11" value="Xem giỏ hàng" style="ellipse;whiteSpace=wrap;html=1;" vertex="1" parent="1">
          <mxGeometry x="-1460" y="360" width="140" height="70" as="geometry" />
        </mxCell>
        <mxCell id="rdfHkaKgOAgfBVkQX1rz-12" value="Thanh toán" style="ellipse;whiteSpace=wrap;html=1;" vertex="1" parent="1">
          <mxGeometry x="-1240" y="280" width="140" height="70" as="geometry" />
        </mxCell>
        <mxCell id="rdfHkaKgOAgfBVkQX1rz-13" value="Đánh giá và viết bình luận" style="ellipse;whiteSpace=wrap;html=1;" vertex="1" parent="1">
          <mxGeometry x="-1460" y="440" width="140" height="70" as="geometry" />
        </mxCell>
        <mxCell id="rdfHkaKgOAgfBVkQX1rz-14" value="Nhận link tải source&amp;nbsp; code từ email" style="ellipse;whiteSpace=wrap;html=1;" vertex="1" parent="1">
          <mxGeometry x="-1040" y="250" width="140" height="70" as="geometry" />
        </mxCell>
        <mxCell id="rdfHkaKgOAgfBVkQX1rz-23" value="&amp;lt;&amp;lt;include&amp;gt;&amp;gt;" style="edgeStyle=none;html=1;endArrow=open;verticalAlign=bottom;dashed=1;labelBackgroundColor=none;rounded=0;exitX=1;exitY=1;exitDx=0;exitDy=0;entryX=0;entryY=0.5;entryDx=0;entryDy=0;" edge="1" parent="1" source="rdfHkaKgOAgfBVkQX1rz-10" target="rdfHkaKgOAgfBVkQX1rz-24">
          <mxGeometry width="160" relative="1" as="geometry">
            <mxPoint x="-1240" y="160" as="sourcePoint" />
            <mxPoint x="-1210" y="180" as="targetPoint" />
            <Array as="points" />
          </mxGeometry>
        </mxCell>
        <mxCell id="rdfHkaKgOAgfBVkQX1rz-24" value="Đăng nhập" style="ellipse;whiteSpace=wrap;html=1;" vertex="1" parent="1">
          <mxGeometry x="-1240" y="390" width="140" height="70" as="geometry" />
        </mxCell>
        <mxCell id="rdfHkaKgOAgfBVkQX1rz-25" value="&amp;lt;&amp;lt;include&amp;gt;&amp;gt;" style="edgeStyle=none;html=1;endArrow=open;verticalAlign=bottom;dashed=1;labelBackgroundColor=none;rounded=0;entryX=0.5;entryY=0;entryDx=0;entryDy=0;exitX=0.5;exitY=1;exitDx=0;exitDy=0;" edge="1" parent="1" source="rdfHkaKgOAgfBVkQX1rz-12" target="rdfHkaKgOAgfBVkQX1rz-24">
          <mxGeometry width="160" relative="1" as="geometry">
            <mxPoint x="-1280" y="420" as="sourcePoint" />
            <mxPoint x="-1120" y="420" as="targetPoint" />
          </mxGeometry>
        </mxCell>
        <mxCell id="rdfHkaKgOAgfBVkQX1rz-27" value="&amp;lt;&amp;lt;include&amp;gt;&amp;gt;" style="edgeStyle=none;html=1;endArrow=open;verticalAlign=bottom;dashed=1;labelBackgroundColor=none;rounded=0;exitX=1;exitY=0.5;exitDx=0;exitDy=0;entryX=0;entryY=0.5;entryDx=0;entryDy=0;" edge="1" parent="1" source="rdfHkaKgOAgfBVkQX1rz-11" target="rdfHkaKgOAgfBVkQX1rz-24">
          <mxGeometry width="160" relative="1" as="geometry">
            <mxPoint x="-1330" y="350" as="sourcePoint" />
            <mxPoint x="-1230" y="445" as="targetPoint" />
            <Array as="points" />
          </mxGeometry>
        </mxCell>
        <mxCell id="rdfHkaKgOAgfBVkQX1rz-29" value="&amp;lt;&amp;lt;include&amp;gt;&amp;gt;" style="edgeStyle=none;html=1;endArrow=open;verticalAlign=bottom;dashed=1;labelBackgroundColor=none;rounded=0;entryX=1;entryY=0.5;entryDx=0;entryDy=0;exitX=0;exitY=0.5;exitDx=0;exitDy=0;" edge="1" parent="1" source="rdfHkaKgOAgfBVkQX1rz-14" target="rdfHkaKgOAgfBVkQX1rz-12">
          <mxGeometry width="160" relative="1" as="geometry">
            <mxPoint x="-1150" y="100" as="sourcePoint" />
            <mxPoint x="-990" y="100" as="targetPoint" />
          </mxGeometry>
        </mxCell>
        <mxCell id="rdfHkaKgOAgfBVkQX1rz-30" value="&amp;lt;&amp;lt;extend&amp;gt;&amp;gt;" style="edgeStyle=none;html=1;startArrow=open;endArrow=none;startSize=12;verticalAlign=bottom;dashed=1;labelBackgroundColor=none;rounded=0;exitX=1;exitY=0.5;exitDx=0;exitDy=0;entryX=0;entryY=0.5;entryDx=0;entryDy=0;" edge="1" parent="1" source="rdfHkaKgOAgfBVkQX1rz-10" target="rdfHkaKgOAgfBVkQX1rz-12">
          <mxGeometry width="160" relative="1" as="geometry">
            <mxPoint x="-1320" y="330" as="sourcePoint" />
            <mxPoint x="-1160" y="330" as="targetPoint" />
          </mxGeometry>
        </mxCell>
        <mxCell id="rdfHkaKgOAgfBVkQX1rz-31" value="&amp;lt;&amp;lt;include&amp;gt;&amp;gt;" style="edgeStyle=none;html=1;endArrow=open;verticalAlign=bottom;dashed=1;labelBackgroundColor=none;rounded=0;exitX=1;exitY=0.5;exitDx=0;exitDy=0;entryX=0;entryY=1;entryDx=0;entryDy=0;" edge="1" parent="1" source="rdfHkaKgOAgfBVkQX1rz-13" target="rdfHkaKgOAgfBVkQX1rz-24">
          <mxGeometry width="160" relative="1" as="geometry">
            <mxPoint x="-1310" y="405" as="sourcePoint" />
            <mxPoint x="-1230" y="435" as="targetPoint" />
            <Array as="points" />
          </mxGeometry>
        </mxCell>
      </root>
    </mxGraphModel>
  </diagram>
  <diagram id="rdLR-niTr_Z1if7e-IdC" name="Người quản lý">
    <mxGraphModel dx="897" dy="553" grid="1" gridSize="10" guides="1" tooltips="1" connect="1" arrows="1" fold="1" page="1" pageScale="1" pageWidth="850" pageHeight="1100" math="0" shadow="0">
      <root>
        <mxCell id="0" />
        <mxCell id="1" parent="0" />
        <mxCell id="FuxS9Der_bp6CMPXDrba-7" style="edgeStyle=orthogonalEdgeStyle;rounded=0;orthogonalLoop=1;jettySize=auto;html=1;exitX=1;exitY=0.3333333333333333;exitDx=0;exitDy=0;exitPerimeter=0;entryX=0;entryY=0.5;entryDx=0;entryDy=0;" edge="1" parent="1" source="FuxS9Der_bp6CMPXDrba-1" target="FuxS9Der_bp6CMPXDrba-2">
          <mxGeometry relative="1" as="geometry" />
        </mxCell>
        <mxCell id="FuxS9Der_bp6CMPXDrba-8" style="edgeStyle=orthogonalEdgeStyle;rounded=0;orthogonalLoop=1;jettySize=auto;html=1;exitX=1;exitY=0.3333333333333333;exitDx=0;exitDy=0;exitPerimeter=0;entryX=0;entryY=0.5;entryDx=0;entryDy=0;" edge="1" parent="1" source="FuxS9Der_bp6CMPXDrba-1" target="FuxS9Der_bp6CMPXDrba-3">
          <mxGeometry relative="1" as="geometry" />
        </mxCell>
        <mxCell id="FuxS9Der_bp6CMPXDrba-9" style="edgeStyle=orthogonalEdgeStyle;rounded=0;orthogonalLoop=1;jettySize=auto;html=1;exitX=1;exitY=0.3333333333333333;exitDx=0;exitDy=0;exitPerimeter=0;entryX=0;entryY=0.5;entryDx=0;entryDy=0;" edge="1" parent="1" source="FuxS9Der_bp6CMPXDrba-1" target="FuxS9Der_bp6CMPXDrba-4">
          <mxGeometry relative="1" as="geometry" />
        </mxCell>
        <mxCell id="FuxS9Der_bp6CMPXDrba-10" style="edgeStyle=orthogonalEdgeStyle;rounded=0;orthogonalLoop=1;jettySize=auto;html=1;exitX=1;exitY=0.3333333333333333;exitDx=0;exitDy=0;exitPerimeter=0;entryX=0;entryY=0.5;entryDx=0;entryDy=0;" edge="1" parent="1" source="FuxS9Der_bp6CMPXDrba-1" target="FuxS9Der_bp6CMPXDrba-5">
          <mxGeometry relative="1" as="geometry" />
        </mxCell>
        <mxCell id="FuxS9Der_bp6CMPXDrba-11" style="edgeStyle=orthogonalEdgeStyle;rounded=0;orthogonalLoop=1;jettySize=auto;html=1;exitX=1;exitY=0.3333333333333333;exitDx=0;exitDy=0;exitPerimeter=0;entryX=0;entryY=0.5;entryDx=0;entryDy=0;" edge="1" parent="1" source="FuxS9Der_bp6CMPXDrba-1" target="FuxS9Der_bp6CMPXDrba-6">
          <mxGeometry relative="1" as="geometry" />
        </mxCell>
        <mxCell id="FuxS9Der_bp6CMPXDrba-1" value="Người quản lý" style="shape=umlActor;html=1;verticalLabelPosition=bottom;verticalAlign=top;align=center;" vertex="1" parent="1">
          <mxGeometry x="110" y="260" width="30" height="60" as="geometry" />
        </mxCell>
        <mxCell id="FuxS9Der_bp6CMPXDrba-2" value="Đăng nhập" style="ellipse;whiteSpace=wrap;html=1;" vertex="1" parent="1">
          <mxGeometry x="280" y="120" width="140" height="70" as="geometry" />
        </mxCell>
        <mxCell id="FuxS9Der_bp6CMPXDrba-13" style="edgeStyle=orthogonalEdgeStyle;rounded=0;orthogonalLoop=1;jettySize=auto;html=1;entryX=0;entryY=0.5;entryDx=0;entryDy=0;" edge="1" parent="1" source="FuxS9Der_bp6CMPXDrba-3" target="FuxS9Der_bp6CMPXDrba-12">
          <mxGeometry relative="1" as="geometry" />
        </mxCell>
        <mxCell id="FuxS9Der_bp6CMPXDrba-3" value="Quản lý sản phẩm" style="ellipse;whiteSpace=wrap;html=1;" vertex="1" parent="1">
          <mxGeometry x="280" y="200" width="140" height="70" as="geometry" />
        </mxCell>
        <mxCell id="FuxS9Der_bp6CMPXDrba-15" style="edgeStyle=orthogonalEdgeStyle;rounded=0;orthogonalLoop=1;jettySize=auto;html=1;entryX=0;entryY=0.5;entryDx=0;entryDy=0;" edge="1" parent="1" source="FuxS9Der_bp6CMPXDrba-4" target="FuxS9Der_bp6CMPXDrba-14">
          <mxGeometry relative="1" as="geometry" />
        </mxCell>
        <mxCell id="FuxS9Der_bp6CMPXDrba-4" value="Quản lý danh mục sản phẩm" style="ellipse;whiteSpace=wrap;html=1;" vertex="1" parent="1">
          <mxGeometry x="280" y="280" width="140" height="70" as="geometry" />
        </mxCell>
        <mxCell id="FuxS9Der_bp6CMPXDrba-19" style="edgeStyle=orthogonalEdgeStyle;rounded=0;orthogonalLoop=1;jettySize=auto;html=1;entryX=0;entryY=0.5;entryDx=0;entryDy=0;exitX=0.5;exitY=1;exitDx=0;exitDy=0;" edge="1" parent="1" source="FuxS9Der_bp6CMPXDrba-20" target="FuxS9Der_bp6CMPXDrba-18">
          <mxGeometry relative="1" as="geometry">
            <Array as="points">
              <mxPoint x="550" y="465" />
            </Array>
          </mxGeometry>
        </mxCell>
        <mxCell id="FuxS9Der_bp6CMPXDrba-21" style="edgeStyle=orthogonalEdgeStyle;rounded=0;orthogonalLoop=1;jettySize=auto;html=1;entryX=0;entryY=0.5;entryDx=0;entryDy=0;" edge="1" parent="1" source="FuxS9Der_bp6CMPXDrba-5" target="FuxS9Der_bp6CMPXDrba-20">
          <mxGeometry relative="1" as="geometry" />
        </mxCell>
        <mxCell id="FuxS9Der_bp6CMPXDrba-5" value="Quản lý đơn hàng" style="ellipse;whiteSpace=wrap;html=1;" vertex="1" parent="1">
          <mxGeometry x="280" y="360" width="140" height="70" as="geometry" />
        </mxCell>
        <mxCell id="FuxS9Der_bp6CMPXDrba-26" style="edgeStyle=orthogonalEdgeStyle;rounded=0;orthogonalLoop=1;jettySize=auto;html=1;entryX=0;entryY=0.5;entryDx=0;entryDy=0;" edge="1" parent="1" source="FuxS9Der_bp6CMPXDrba-6" target="FuxS9Der_bp6CMPXDrba-25">
          <mxGeometry relative="1" as="geometry" />
        </mxCell>
        <mxCell id="FuxS9Der_bp6CMPXDrba-6" value="Quản lý thông kê báo cáo" style="ellipse;whiteSpace=wrap;html=1;" vertex="1" parent="1">
          <mxGeometry x="280" y="440" width="140" height="70" as="geometry" />
        </mxCell>
        <mxCell id="FuxS9Der_bp6CMPXDrba-12" value="Thêm, xóa, sửa, xem danh sách sản phẩm" style="ellipse;whiteSpace=wrap;html=1;" vertex="1" parent="1">
          <mxGeometry x="480" y="200" width="140" height="70" as="geometry" />
        </mxCell>
        <mxCell id="FuxS9Der_bp6CMPXDrba-14" value="Thêm, xóa, sửa, xem danh sách danh mục sản phẩm" style="ellipse;whiteSpace=wrap;html=1;" vertex="1" parent="1">
          <mxGeometry x="480" y="280" width="140" height="70" as="geometry" />
        </mxCell>
        <mxCell id="FuxS9Der_bp6CMPXDrba-16" value="Sửa thông tin đơn hàng" style="ellipse;whiteSpace=wrap;html=1;" vertex="1" parent="1">
          <mxGeometry x="680" y="360" width="140" height="70" as="geometry" />
        </mxCell>
        <mxCell id="FuxS9Der_bp6CMPXDrba-18" value="Hủy đơn hàng" style="ellipse;whiteSpace=wrap;html=1;" vertex="1" parent="1">
          <mxGeometry x="680" y="430" width="140" height="70" as="geometry" />
        </mxCell>
        <mxCell id="FuxS9Der_bp6CMPXDrba-22" style="edgeStyle=orthogonalEdgeStyle;rounded=0;orthogonalLoop=1;jettySize=auto;html=1;entryX=0;entryY=0.5;entryDx=0;entryDy=0;" edge="1" parent="1" source="FuxS9Der_bp6CMPXDrba-20" target="FuxS9Der_bp6CMPXDrba-16">
          <mxGeometry relative="1" as="geometry" />
        </mxCell>
        <mxCell id="FuxS9Der_bp6CMPXDrba-24" style="edgeStyle=orthogonalEdgeStyle;rounded=0;orthogonalLoop=1;jettySize=auto;html=1;entryX=0;entryY=0.5;entryDx=0;entryDy=0;" edge="1" parent="1" source="FuxS9Der_bp6CMPXDrba-20" target="FuxS9Der_bp6CMPXDrba-23">
          <mxGeometry relative="1" as="geometry">
            <Array as="points">
              <mxPoint x="550" y="535" />
            </Array>
          </mxGeometry>
        </mxCell>
        <mxCell id="FuxS9Der_bp6CMPXDrba-20" value="Xem danh sách đơn hàng và chi tiết đơn hàng" style="ellipse;whiteSpace=wrap;html=1;" vertex="1" parent="1">
          <mxGeometry x="480" y="360" width="140" height="70" as="geometry" />
        </mxCell>
        <mxCell id="FuxS9Der_bp6CMPXDrba-23" value="Gửi thông báo cho người dùng về trạng thái đơn hàng" style="ellipse;whiteSpace=wrap;html=1;" vertex="1" parent="1">
          <mxGeometry x="680" y="500" width="140" height="70" as="geometry" />
        </mxCell>
        <mxCell id="FuxS9Der_bp6CMPXDrba-25" value="Xem các thông kê&lt;br&gt;Vd: sản phẩm bán chạy, doanh số, đánh giá sản phẩm, ..." style="ellipse;whiteSpace=wrap;html=1;" vertex="1" parent="1">
          <mxGeometry x="400" y="510" width="140" height="70" as="geometry" />
        </mxCell>
      </root>
    </mxGraphModel>
  </diagram>
</mxfile>
